<svg xmlns="http://www.w3.org/2000/svg" xmlns:xlink="http://www.w3.org/1999/xlink" width="55" zoomAndPan="magnify" viewBox="0 0 41.25 41.250001" height="55" preserveAspectRatio="xMidYMid meet" version="1.0"><defs><clipPath id="fed49565ba"><path d="M 19 1.492188 L 38 1.492188 L 38 28 L 19 28 Z M 19 1.492188 " clip-rule="nonzero"/></clipPath><clipPath id="16ee224e77"><path d="M 0 1.492188 L 19 1.492188 L 19 28 L 0 28 Z M 0 1.492188 " clip-rule="nonzero"/></clipPath><clipPath id="61e27844fd"><path d="M 20 15 L 40.511719 15 L 40.511719 39.0625 L 20 39.0625 Z M 20 15 " clip-rule="nonzero"/></clipPath></defs><g clip-path="url(#fed49565ba)"><path fill="#4e4e57" d="M 19.011719 1.496094 L 37.3125 1.496094 L 37.3125 27.261719 L 19.011719 27.261719 Z M 19.011719 1.496094 " fill-opacity="1" fill-rule="nonzero"/></g><path fill="#00d680" d="M 28.976562 21.722656 C 26.660156 21.722656 24.789062 19.847656 24.789062 17.53125 L 24.789062 15.417969 C 24.789062 13.101562 26.660156 11.226562 28.976562 11.226562 C 31.289062 11.226562 33.160156 13.101562 33.160156 15.417969 L 33.160156 17.53125 C 33.160156 19.847656 31.289062 21.722656 28.976562 21.722656 Z M 28.976562 21.722656 " fill-opacity="1" fill-rule="nonzero"/><g clip-path="url(#16ee224e77)"><path fill="#4e4e57" d="M 0 1.640625 L 18.300781 1.640625 L 18.300781 27.410156 L 0 27.410156 Z M 0 1.640625 " fill-opacity="1" fill-rule="nonzero"/></g><path fill="#ffffff" d="M 22.28125 3.046875 L 35.433594 3.046875 L 35.433594 3.621094 L 22.28125 3.621094 Z M 22.28125 3.046875 " fill-opacity="1" fill-rule="nonzero"/><path fill="#ffffff" d="M 23.1875 4.097656 L 34.53125 4.097656 L 34.53125 4.667969 L 23.1875 4.667969 Z M 23.1875 4.097656 " fill-opacity="1" fill-rule="nonzero"/><path fill="#ffffff" d="M 22.28125 5.144531 L 35.433594 5.144531 L 35.433594 5.71875 L 22.28125 5.71875 Z M 22.28125 5.144531 " fill-opacity="1" fill-rule="nonzero"/><path fill="#ffffff" d="M 23.1875 6.199219 L 34.53125 6.199219 L 34.53125 6.773438 L 23.1875 6.773438 Z M 23.1875 6.199219 " fill-opacity="1" fill-rule="nonzero"/><path fill="#ffffff" d="M 22.28125 7.246094 L 35.433594 7.246094 L 35.433594 7.820312 L 22.28125 7.820312 Z M 22.28125 7.246094 " fill-opacity="1" fill-rule="nonzero"/><path fill="#ffffff" d="M 23.1875 8.296875 L 34.53125 8.296875 L 34.53125 8.867188 L 23.1875 8.867188 Z M 23.1875 8.296875 " fill-opacity="1" fill-rule="nonzero"/><path fill="#f9ba39" d="M 1.734375 3.597656 L 16.796875 3.597656 L 16.796875 11.230469 L 1.734375 11.230469 Z M 1.734375 3.597656 " fill-opacity="1" fill-rule="nonzero"/><path fill="#58595b" d="M 5.953125 4.75 L 5.953125 5.195312 L 3.78125 9.738281 L 3.085938 9.738281 L 5.246094 5.320312 L 5.246094 5.304688 L 2.8125 5.304688 L 2.8125 4.742188 L 5.953125 4.742188 Z M 5.953125 4.75 " fill-opacity="1" fill-rule="nonzero"/><path fill="#58595b" d="M 6.710938 6.636719 C 6.710938 6.351562 6.90625 6.15625 7.164062 6.15625 C 7.4375 6.15625 7.613281 6.355469 7.613281 6.636719 C 7.613281 6.90625 7.4375 7.113281 7.152344 7.113281 C 6.894531 7.113281 6.710938 6.90625 6.710938 6.636719 Z M 6.710938 9.347656 C 6.710938 9.0625 6.90625 8.867188 7.164062 8.867188 C 7.4375 8.867188 7.613281 9.070312 7.613281 9.347656 C 7.613281 9.617188 7.4375 9.824219 7.152344 9.824219 C 6.894531 9.824219 6.710938 9.617188 6.710938 9.347656 Z M 6.710938 9.347656 " fill-opacity="1" fill-rule="nonzero"/><path fill="#58595b" d="M 11.558594 7.191406 C 11.558594 8.886719 10.917969 9.824219 9.824219 9.824219 C 8.847656 9.824219 8.179688 8.910156 8.167969 7.257812 C 8.167969 5.578125 8.898438 4.664062 9.90625 4.664062 C 10.953125 4.664062 11.558594 5.601562 11.558594 7.191406 Z M 8.847656 7.269531 C 8.847656 8.570312 9.25 9.304688 9.859375 9.304688 C 10.539062 9.304688 10.871094 8.503906 10.871094 7.230469 C 10.871094 5.996094 10.566406 5.195312 9.859375 5.195312 C 9.28125 5.1875 8.847656 5.914062 8.847656 7.269531 Z M 8.847656 7.269531 " fill-opacity="1" fill-rule="nonzero"/><path fill="#58595b" d="M 15.496094 7.191406 C 15.496094 8.886719 14.855469 9.824219 13.761719 9.824219 C 12.785156 9.824219 12.117188 8.910156 12.105469 7.257812 C 12.105469 5.578125 12.835938 4.664062 13.84375 4.664062 C 14.886719 4.664062 15.496094 5.601562 15.496094 7.191406 Z M 12.785156 7.269531 C 12.785156 8.570312 13.1875 9.304688 13.796875 9.304688 C 14.476562 9.304688 14.808594 8.503906 14.808594 7.230469 C 14.808594 5.996094 14.503906 5.195312 13.796875 5.195312 C 13.210938 5.1875 12.785156 5.914062 12.785156 7.269531 Z M 12.785156 7.269531 " fill-opacity="1" fill-rule="nonzero"/><path fill="#e3e3ff" d="M 4.90625 16.035156 L 3.273438 16.035156 C 2.714844 16.035156 2.257812 15.578125 2.257812 15.015625 L 2.257812 14.046875 C 2.257812 13.488281 2.714844 13.03125 3.273438 13.03125 L 4.910156 13.03125 C 5.472656 13.03125 5.925781 13.488281 5.925781 14.046875 L 5.925781 15.015625 C 5.921875 15.578125 5.464844 16.035156 4.90625 16.035156 Z M 4.90625 16.035156 " fill-opacity="1" fill-rule="nonzero"/><path fill="#e3e3ff" d="M 10.085938 16.035156 L 8.445312 16.035156 C 7.886719 16.035156 7.429688 15.578125 7.429688 15.015625 L 7.429688 14.046875 C 7.429688 13.488281 7.886719 13.03125 8.445312 13.03125 L 10.085938 13.03125 C 10.644531 13.03125 11.101562 13.488281 11.101562 14.046875 L 11.101562 15.015625 C 11.101562 15.578125 10.644531 16.035156 10.085938 16.035156 Z M 10.085938 16.035156 " fill-opacity="1" fill-rule="nonzero"/><path fill="#e3e3ff" d="M 15.257812 16.035156 L 13.621094 16.035156 C 13.058594 16.035156 12.605469 15.578125 12.605469 15.015625 L 12.605469 14.046875 C 12.605469 13.488281 13.058594 13.03125 13.621094 13.03125 L 15.257812 13.03125 C 15.816406 13.03125 16.273438 13.488281 16.273438 14.046875 L 16.273438 15.015625 C 16.273438 15.578125 15.816406 16.035156 15.257812 16.035156 Z M 15.257812 16.035156 " fill-opacity="1" fill-rule="nonzero"/><path fill="#e3e3ff" d="M 4.90625 20.867188 L 3.273438 20.867188 C 2.714844 20.867188 2.257812 20.410156 2.257812 19.847656 L 2.257812 18.878906 C 2.257812 18.320312 2.714844 17.863281 3.273438 17.863281 L 4.910156 17.863281 C 5.472656 17.863281 5.925781 18.320312 5.925781 18.878906 L 5.925781 19.847656 C 5.921875 20.414062 5.464844 20.867188 4.90625 20.867188 Z M 4.90625 20.867188 " fill-opacity="1" fill-rule="nonzero"/><path fill="#e3e3ff" d="M 10.085938 20.867188 L 8.445312 20.867188 C 7.886719 20.867188 7.429688 20.410156 7.429688 19.847656 L 7.429688 18.878906 C 7.429688 18.320312 7.886719 17.863281 8.445312 17.863281 L 10.085938 17.863281 C 10.644531 17.863281 11.101562 18.320312 11.101562 18.878906 L 11.101562 19.847656 C 11.101562 20.414062 10.644531 20.867188 10.085938 20.867188 Z M 10.085938 20.867188 " fill-opacity="1" fill-rule="nonzero"/><path fill="#e3e3ff" d="M 15.257812 20.867188 L 13.621094 20.867188 C 13.058594 20.867188 12.605469 20.410156 12.605469 19.847656 L 12.605469 18.878906 C 12.605469 18.320312 13.058594 17.863281 13.621094 17.863281 L 15.257812 17.863281 C 15.816406 17.863281 16.273438 18.320312 16.273438 18.878906 L 16.273438 19.847656 C 16.273438 20.414062 15.816406 20.867188 15.257812 20.867188 Z M 15.257812 20.867188 " fill-opacity="1" fill-rule="nonzero"/><path fill="#e3e3ff" d="M 4.90625 25.703125 L 3.273438 25.703125 C 2.714844 25.703125 2.257812 25.246094 2.257812 24.6875 L 2.257812 23.71875 C 2.257812 23.15625 2.714844 22.699219 3.273438 22.699219 L 4.910156 22.699219 C 5.472656 22.699219 5.925781 23.15625 5.925781 23.71875 L 5.925781 24.6875 C 5.921875 25.246094 5.464844 25.703125 4.90625 25.703125 Z M 4.90625 25.703125 " fill-opacity="1" fill-rule="nonzero"/><path fill="#e3e3ff" d="M 10.085938 25.703125 L 8.445312 25.703125 C 7.886719 25.703125 7.429688 25.246094 7.429688 24.6875 L 7.429688 23.71875 C 7.429688 23.15625 7.886719 22.699219 8.445312 22.699219 L 10.085938 22.699219 C 10.644531 22.699219 11.101562 23.15625 11.101562 23.71875 L 11.101562 24.6875 C 11.101562 25.246094 10.644531 25.703125 10.085938 25.703125 Z M 10.085938 25.703125 " fill-opacity="1" fill-rule="nonzero"/><path fill="#e3e3ff" d="M 15.257812 25.703125 L 13.621094 25.703125 C 13.058594 25.703125 12.605469 25.246094 12.605469 24.6875 L 12.605469 23.71875 C 12.605469 23.15625 13.058594 22.699219 13.621094 22.699219 L 15.257812 22.699219 C 15.816406 22.699219 16.273438 23.15625 16.273438 23.71875 L 16.273438 24.6875 C 16.273438 25.246094 15.816406 25.703125 15.257812 25.703125 Z M 15.257812 25.703125 " fill-opacity="1" fill-rule="nonzero"/><g clip-path="url(#61e27844fd)"><path fill="#fed0b9" d="M 40.496094 26.734375 C 40.496094 26.042969 39.742188 25.484375 38.816406 25.484375 C 37.890625 25.484375 37.136719 26.042969 37.136719 26.734375 L 37.136719 25.050781 C 37.136719 24.363281 36.382812 23.800781 35.457031 23.800781 C 34.53125 23.800781 33.777344 24.363281 33.777344 25.050781 L 33.777344 23.289062 C 33.777344 22.601562 33.023438 22.042969 32.097656 22.042969 C 31.171875 22.042969 30.417969 22.601562 30.417969 23.289062 L 30.417969 17.996094 C 30.417969 16.765625 29.664062 15.765625 28.738281 15.765625 C 27.8125 15.765625 27.058594 16.765625 27.058594 17.996094 L 27.058594 32.949219 L 23.777344 29.792969 C 23.289062 29.339844 21.953125 29.238281 21.34375 29.988281 C 20.734375 30.738281 20.960938 32.046875 21.445312 32.496094 L 26.515625 37.1875 C 26.675781 37.335938 26.867188 37.410156 27.089844 37.414062 C 27.253906 38.339844 28.0625 39.042969 29.042969 39.042969 L 38.425781 39.042969 C 39.519531 39.042969 40.410156 38.160156 40.410156 37.066406 L 40.5 35.320312 C 40.511719 34.941406 40.5 34.832031 40.5 34.691406 L 40.5 26.734375 Z M 40.496094 26.734375 " fill-opacity="1" fill-rule="nonzero"/><path fill="#fed0b9" d="M 38.417969 39.058594 L 29.042969 39.058594 C 28.574219 39.058594 28.117188 38.894531 27.757812 38.589844 C 27.40625 38.292969 27.167969 37.878906 27.089844 37.425781 C 26.863281 37.421875 26.667969 37.339844 26.515625 37.203125 L 21.445312 32.507812 C 21.203125 32.285156 21.027344 31.84375 20.984375 31.363281 C 20.941406 30.835938 21.070312 30.335938 21.34375 29.992188 C 21.628906 29.644531 22.109375 29.445312 22.664062 29.445312 C 23.121094 29.445312 23.546875 29.578125 23.785156 29.796875 L 27.058594 32.941406 L 27.058594 18 C 27.058594 16.769531 27.8125 15.765625 28.742188 15.765625 C 29.675781 15.765625 30.429688 16.769531 30.429688 18 L 30.429688 23.167969 C 30.515625 22.542969 31.234375 22.046875 32.101562 22.046875 C 33.035156 22.046875 33.789062 22.609375 33.789062 23.296875 L 33.789062 24.929688 C 33.875 24.300781 34.59375 23.808594 35.460938 23.808594 C 36.394531 23.808594 37.148438 24.367188 37.148438 25.058594 L 37.148438 26.613281 C 37.234375 25.984375 37.953125 25.492188 38.820312 25.492188 C 39.753906 25.492188 40.507812 26.050781 40.507812 26.738281 L 40.507812 34.703125 C 40.507812 34.746094 40.507812 34.78125 40.507812 34.824219 C 40.507812 34.929688 40.511719 35.0625 40.507812 35.332031 L 40.410156 37.078125 C 40.410156 38.171875 39.515625 39.058594 38.417969 39.058594 Z M 22.664062 29.449219 C 22.109375 29.449219 21.628906 29.652344 21.347656 30 C 21.074219 30.335938 20.949219 30.835938 20.988281 31.363281 C 21.03125 31.84375 21.210938 32.277344 21.453125 32.503906 L 26.523438 37.195312 C 26.675781 37.335938 26.867188 37.414062 27.089844 37.421875 C 27.089844 37.421875 27.09375 37.421875 27.09375 37.425781 C 27.257812 38.371094 28.078125 39.054688 29.042969 39.054688 L 38.425781 39.054688 C 39.515625 39.054688 40.402344 38.171875 40.402344 37.085938 L 40.496094 35.335938 C 40.507812 35.070312 40.5 34.933594 40.496094 34.832031 C 40.496094 34.789062 40.496094 34.746094 40.496094 34.703125 L 40.496094 26.734375 C 40.496094 26.042969 39.746094 25.492188 38.820312 25.492188 C 37.894531 25.492188 37.148438 26.042969 37.148438 26.734375 C 37.148438 26.734375 37.148438 26.738281 37.140625 26.738281 C 37.136719 26.738281 37.136719 26.738281 37.136719 26.734375 L 37.136719 25.050781 C 37.136719 24.363281 36.386719 23.808594 35.460938 23.808594 C 34.535156 23.808594 33.789062 24.367188 33.789062 25.050781 C 33.789062 25.050781 33.789062 25.058594 33.78125 25.058594 C 33.78125 25.058594 33.777344 25.058594 33.777344 25.050781 L 33.777344 23.289062 C 33.777344 22.601562 33.027344 22.046875 32.101562 22.046875 C 31.175781 22.046875 30.429688 22.609375 30.429688 23.289062 C 30.429688 23.289062 30.429688 23.296875 30.421875 23.296875 C 30.417969 23.296875 30.417969 23.296875 30.417969 23.289062 L 30.417969 17.996094 C 30.417969 16.769531 29.667969 15.769531 28.742188 15.769531 C 27.816406 15.769531 27.070312 16.769531 27.070312 17.996094 L 27.070312 32.949219 C 27.070312 32.949219 27.070312 32.953125 27.070312 32.953125 C 27.070312 32.953125 27.0625 32.953125 27.0625 32.953125 L 23.785156 29.796875 C 23.539062 29.585938 23.113281 29.449219 22.664062 29.449219 Z M 22.664062 29.449219 " fill-opacity="1" fill-rule="nonzero"/></g></svg>