<svg xmlns="http://www.w3.org/2000/svg" xmlns:xlink="http://www.w3.org/1999/xlink" width="55" zoomAndPan="magnify" viewBox="0 0 41.25 41.250001" height="55" preserveAspectRatio="xMidYMid meet" version="1.0"><defs><clipPath id="10069c24e6"><path d="M 2.652344 0 L 38.007812 0 L 38.007812 40.511719 L 2.652344 40.511719 Z M 2.652344 0 " clip-rule="nonzero"/></clipPath></defs><g clip-path="url(#10069c24e6)"><path fill="#1e1e1e" d="M 14.777344 12.054688 L 14.777344 9.972656 C 14.777344 6.886719 17.296875 4.367188 20.40625 4.367188 C 23.511719 4.367188 26.035156 6.875 26.035156 9.972656 L 30.308594 9.972656 C 30.308594 4.535156 25.863281 0.109375 20.40625 0.109375 C 14.945312 0.109375 10.503906 4.535156 10.503906 9.972656 L 10.503906 12.054688 L 2.695312 12.054688 L 2.695312 30.222656 C 2.695312 35.777344 7.234375 40.296875 12.808594 40.296875 L 38.09375 40.296875 L 38.09375 12.054688 Z M 32.765625 34.976562 L 12.820312 34.976562 C 10.183594 34.976562 8.046875 32.839844 8.046875 30.222656 L 8.046875 17.375 L 32.773438 17.375 L 32.773438 34.976562 Z M 32.765625 34.976562 " fill-opacity="1" fill-rule="nonzero"/></g><path fill="#3fa9f5" d="M 20.40625 29.171875 C 23.664062 29.171875 26.664062 27.136719 27.851562 24.117188 L 24.871094 22.949219 C 24.15625 24.757812 22.359375 25.980469 20.40625 25.980469 C 18.441406 25.980469 16.644531 24.757812 15.929688 22.949219 L 12.949219 24.117188 C 14.144531 27.136719 17.136719 29.171875 20.40625 29.171875 Z M 20.40625 29.171875 " fill-opacity="1" fill-rule="nonzero"/></svg>