<svg xmlns="http://www.w3.org/2000/svg" xmlns:xlink="http://www.w3.org/1999/xlink" width="55" zoomAndPan="magnify" viewBox="0 0 41.25 41.250001" height="55" preserveAspectRatio="xMidYMid meet" version="1.0"><defs><clipPath id="116af2c2ec"><path d="M 0 10 L 31 10 L 31 40.511719 L 0 40.511719 Z M 0 10 " clip-rule="nonzero"/></clipPath><clipPath id="610bec83f2"><path d="M 7 24 L 38 24 L 38 40.511719 L 7 40.511719 Z M 7 24 " clip-rule="nonzero"/></clipPath><clipPath id="66f650f292"><path d="M 38 16 L 40.511719 16 L 40.511719 19 L 38 19 Z M 38 16 " clip-rule="nonzero"/></clipPath></defs><g clip-path="url(#116af2c2ec)"><path fill="#c1dbdc" d="M 30.824219 25.058594 C 30.824219 33.363281 24.128906 40.09375 15.867188 40.09375 C 7.601562 40.09375 0.90625 33.363281 0.90625 25.058594 C 0.90625 16.753906 7.601562 10.027344 15.867188 10.027344 C 24.128906 10.019531 30.824219 16.753906 30.824219 25.058594 Z M 30.824219 25.058594 " fill-opacity="1" fill-rule="nonzero"/></g><path fill="#6b4f5b" d="M 22.257812 10.949219 C 30.125 10.949219 36.507812 17.410156 36.507812 25.394531 L 8.011719 25.394531 C 8.011719 17.410156 14.394531 10.949219 22.257812 10.949219 Z M 22.257812 10.949219 " fill-opacity="1" fill-rule="nonzero"/><path fill="#4c241d" d="M 36.507812 26.058594 L 8.011719 26.058594 C 7.640625 26.058594 7.347656 25.753906 7.347656 25.394531 C 7.347656 17.058594 14.035156 10.28125 22.257812 10.28125 C 30.484375 10.28125 37.171875 17.058594 37.171875 25.394531 C 37.179688 25.753906 36.878906 26.058594 36.507812 26.058594 Z M 8.691406 24.726562 L 35.824219 24.726562 C 35.484375 17.441406 29.53125 11.625 22.257812 11.625 C 14.988281 11.625 9.035156 17.441406 8.691406 24.726562 Z M 8.691406 24.726562 " fill-opacity="1" fill-rule="nonzero"/><path fill="#ffffff" d="M 10.554688 33.628906 C 8.957031 31.289062 8.011719 28.457031 8.011719 25.394531 L 36.507812 25.394531 C 36.507812 33.375 30.125 39.835938 22.257812 39.835938 C 19.785156 39.835938 17.464844 39.199219 15.425781 38.074219 " fill-opacity="1" fill-rule="nonzero"/><g clip-path="url(#610bec83f2)"><path fill="#4c241d" d="M 22.257812 40.503906 C 19.765625 40.503906 17.289062 39.867188 15.117188 38.664062 C 14.792969 38.484375 14.675781 38.074219 14.851562 37.75 C 15.027344 37.429688 15.4375 37.3125 15.757812 37.488281 C 17.738281 38.585938 19.988281 39.160156 22.269531 39.160156 C 29.539062 39.160156 35.496094 33.34375 35.835938 26.058594 L 8.691406 26.058594 C 8.808594 28.644531 9.636719 31.121094 11.101562 33.246094 C 11.304688 33.550781 11.238281 33.972656 10.933594 34.175781 C 10.632812 34.382812 10.214844 34.3125 10.007812 34.011719 C 8.265625 31.472656 7.347656 28.496094 7.347656 25.394531 C 7.347656 25.019531 7.652344 24.726562 8.011719 24.726562 L 36.507812 24.726562 C 36.878906 24.726562 37.171875 25.03125 37.171875 25.394531 C 37.179688 33.726562 30.484375 40.503906 22.257812 40.503906 Z M 22.257812 40.503906 " fill-opacity="1" fill-rule="nonzero"/></g><path fill="#4c241d" d="M 13.3125 37.300781 C 13.167969 37.300781 13.019531 37.253906 12.894531 37.15625 C 12.550781 36.871094 12.222656 36.578125 11.898438 36.261719 C 11.636719 36.007812 11.625 35.578125 11.890625 35.324219 C 12.144531 35.058594 12.570312 35.050781 12.824219 35.3125 C 13.117188 35.597656 13.421875 35.871094 13.730469 36.125 C 14.015625 36.359375 14.0625 36.78125 13.828125 37.066406 C 13.703125 37.214844 13.507812 37.300781 13.3125 37.300781 Z M 13.3125 37.300781 " fill-opacity="1" fill-rule="nonzero"/><path fill="#ffce56" d="M 16.304688 20.789062 C 16.910156 18.007812 19.355469 16.03125 22.191406 16.03125 C 25.015625 16.03125 27.464844 18.007812 28.078125 20.789062 L 28.351562 22.054688 L 30.835938 22.054688 L 29.609375 13.035156 C 27.464844 11.722656 24.960938 10.949219 22.257812 10.949219 C 19.6875 10.949219 17.28125 11.644531 15.203125 12.859375 L 13.535156 22.054688 L 16.023438 22.054688 Z M 16.304688 20.789062 " fill-opacity="1" fill-rule="nonzero"/><path fill="#4c241d" d="M 30.824219 22.71875 L 28.339844 22.71875 C 28.027344 22.71875 27.757812 22.503906 27.6875 22.191406 L 27.414062 20.925781 C 26.878906 18.480469 24.675781 16.695312 22.179688 16.695312 C 19.6875 16.695312 17.484375 18.480469 16.949219 20.925781 L 16.675781 22.191406 C 16.605469 22.496094 16.335938 22.71875 16.023438 22.71875 L 13.535156 22.71875 C 13.34375 22.71875 13.15625 22.632812 13.03125 22.476562 C 12.902344 22.316406 12.855469 22.121094 12.882812 21.925781 L 14.550781 12.730469 C 14.589844 12.535156 14.707031 12.367188 14.871094 12.269531 C 17.125 10.96875 19.6875 10.273438 22.269531 10.273438 C 24.96875 10.273438 27.628906 11.027344 29.957031 12.457031 C 30.132812 12.5625 30.242188 12.742188 30.269531 12.9375 L 31.5 21.957031 C 31.527344 22.152344 31.46875 22.335938 31.34375 22.484375 C 31.207031 22.632812 31.019531 22.71875 30.824219 22.71875 Z M 28.875 21.378906 L 30.066406 21.378906 L 28.984375 13.4375 C 26.925781 12.242188 24.609375 11.613281 22.257812 11.613281 C 20.007812 11.613281 17.785156 12.191406 15.796875 13.277344 L 14.335938 21.378906 L 15.496094 21.378906 L 15.652344 20.644531 C 16.324219 17.589844 19.0625 15.363281 22.179688 15.363281 C 25.300781 15.363281 28.046875 17.589844 28.710938 20.644531 Z M 28.875 21.378906 " fill-opacity="1" fill-rule="nonzero"/><path fill="#edebdc" d="M 26.8125 25.519531 C 26.8125 28.046875 24.773438 30.09375 22.257812 30.09375 C 19.746094 30.09375 17.707031 28.046875 17.707031 25.519531 C 17.707031 22.992188 19.746094 20.945312 22.257812 20.945312 C 24.773438 20.945312 26.8125 22.992188 26.8125 25.519531 Z M 26.8125 25.519531 " fill-opacity="1" fill-rule="nonzero"/><path fill="#4c241d" d="M 22.257812 30.757812 C 19.382812 30.757812 17.046875 28.410156 17.046875 25.519531 C 17.046875 22.632812 19.382812 20.28125 22.257812 20.28125 C 25.132812 20.28125 27.472656 22.632812 27.472656 25.519531 C 27.484375 28.410156 25.132812 30.757812 22.257812 30.757812 Z M 22.257812 21.613281 C 20.117188 21.613281 18.371094 23.367188 18.371094 25.519531 C 18.371094 27.675781 20.117188 29.429688 22.257812 29.429688 C 24.402344 29.429688 26.148438 27.675781 26.148438 25.519531 C 26.148438 23.367188 24.402344 21.613281 22.257812 21.613281 Z M 22.257812 21.613281 " fill-opacity="1" fill-rule="nonzero"/><path fill="#edebdc" d="M 24.246094 25.519531 C 24.246094 26.617188 23.359375 27.507812 22.269531 27.507812 C 21.175781 27.507812 20.289062 26.617188 20.289062 25.519531 C 20.289062 24.421875 21.175781 23.53125 22.269531 23.53125 C 23.359375 23.53125 24.246094 24.414062 24.246094 25.519531 Z M 24.246094 25.519531 " fill-opacity="1" fill-rule="nonzero"/><path fill="#4c241d" d="M 22.257812 28.175781 C 20.796875 28.175781 19.609375 26.980469 19.609375 25.511719 C 19.609375 24.042969 20.796875 22.847656 22.257812 22.847656 C 23.722656 22.847656 24.910156 24.042969 24.910156 25.511719 C 24.910156 26.980469 23.722656 28.175781 22.257812 28.175781 Z M 22.257812 24.199219 C 21.539062 24.199219 20.945312 24.796875 20.945312 25.519531 C 20.945312 26.246094 21.539062 26.84375 22.257812 26.84375 C 22.980469 26.84375 23.574219 26.246094 23.574219 25.519531 C 23.574219 24.785156 22.992188 24.199219 22.257812 24.199219 Z M 22.257812 24.199219 " fill-opacity="1" fill-rule="nonzero"/><path fill="#4c241d" d="M 35.484375 5.347656 C 35.113281 5.347656 34.820312 5.042969 34.820312 4.679688 L 34.820312 2.671875 C 34.820312 2.300781 35.125 2.007812 35.484375 2.007812 C 35.84375 2.007812 36.148438 2.3125 36.148438 2.671875 L 36.148438 4.679688 C 36.148438 5.042969 35.855469 5.347656 35.484375 5.347656 Z M 35.484375 5.347656 " fill-opacity="1" fill-rule="nonzero"/><path fill="#4c241d" d="M 35.484375 10.019531 C 35.113281 10.019531 34.820312 9.714844 34.820312 9.351562 L 34.820312 7.34375 C 34.820312 6.972656 35.125 6.679688 35.484375 6.679688 C 35.84375 6.679688 36.148438 6.984375 36.148438 7.34375 L 36.148438 9.351562 C 36.148438 9.722656 35.855469 10.019531 35.484375 10.019531 Z M 35.484375 10.019531 " fill-opacity="1" fill-rule="nonzero"/><path fill="#4c241d" d="M 34.160156 6.679688 L 32.160156 6.679688 C 31.789062 6.679688 31.5 6.375 31.5 6.011719 C 31.5 5.652344 31.800781 5.347656 32.160156 5.347656 L 34.160156 5.347656 C 34.53125 5.347656 34.820312 5.652344 34.820312 6.011719 C 34.820312 6.375 34.519531 6.679688 34.160156 6.679688 Z M 34.160156 6.679688 " fill-opacity="1" fill-rule="nonzero"/><path fill="#4c241d" d="M 38.808594 6.679688 L 36.808594 6.679688 C 36.441406 6.679688 36.148438 6.375 36.148438 6.011719 C 36.148438 5.652344 36.449219 5.347656 36.808594 5.347656 L 38.808594 5.347656 C 39.179688 5.347656 39.46875 5.652344 39.46875 6.011719 C 39.46875 6.375 39.179688 6.679688 38.808594 6.679688 Z M 38.808594 6.679688 " fill-opacity="1" fill-rule="nonzero"/><path fill="#4c241d" d="M 2.113281 20.496094 C 1.785156 20.496094 1.453125 20.417969 1.148438 20.25 C 0.664062 19.988281 0.3125 19.554688 0.15625 19.027344 C 0 18.5 0.046875 17.941406 0.3125 17.460938 C 0.574219 16.972656 1.003906 16.617188 1.53125 16.460938 C 2.613281 16.128906 3.761719 16.746094 4.082031 17.832031 C 4.414062 18.921875 3.800781 20.074219 2.71875 20.410156 C 2.515625 20.46875 2.320312 20.496094 2.113281 20.496094 Z M 2.125 17.707031 C 2.054688 17.707031 1.988281 17.714844 1.921875 17.734375 C 1.734375 17.792969 1.589844 17.910156 1.492188 18.085938 C 1.402344 18.253906 1.382812 18.449219 1.433594 18.636719 C 1.492188 18.820312 1.609375 18.96875 1.785156 19.066406 C 1.957031 19.164062 2.152344 19.175781 2.328125 19.125 C 2.710938 19.007812 2.921875 18.605469 2.808594 18.226562 C 2.71875 17.910156 2.425781 17.707031 2.125 17.707031 Z M 2.125 17.707031 " fill-opacity="1" fill-rule="nonzero"/><path fill="#4c241d" d="M 3.429688 4.121094 C 2.300781 4.121094 1.382812 3.203125 1.382812 2.066406 C 1.382812 0.929688 2.300781 0.0117188 3.429688 0.0117188 C 4.5625 0.0117188 5.476562 0.929688 5.476562 2.066406 C 5.488281 3.191406 4.5625 4.121094 3.429688 4.121094 Z M 3.429688 1.332031 C 3.03125 1.332031 2.710938 1.65625 2.710938 2.054688 C 2.710938 2.457031 3.03125 2.78125 3.429688 2.78125 C 3.832031 2.78125 4.152344 2.457031 4.152344 2.054688 C 4.152344 1.65625 3.832031 1.332031 3.429688 1.332031 Z M 3.429688 1.332031 " fill-opacity="1" fill-rule="nonzero"/><path fill="#4c241d" d="M 9.054688 9.175781 C 8.886719 9.175781 8.710938 9.109375 8.585938 8.980469 C 8.324219 8.714844 8.324219 8.292969 8.585938 8.039062 L 10.546875 6.070312 C 10.808594 5.808594 11.226562 5.808594 11.480469 6.070312 C 11.742188 6.335938 11.742188 6.757812 11.480469 7.011719 L 9.523438 8.980469 C 9.394531 9.109375 9.21875 9.175781 9.054688 9.175781 Z M 9.054688 9.175781 " fill-opacity="1" fill-rule="nonzero"/><path fill="#4c241d" d="M 11.011719 9.175781 C 10.847656 9.175781 10.671875 9.109375 10.546875 8.980469 L 8.585938 7.011719 C 8.324219 6.746094 8.324219 6.328125 8.585938 6.070312 C 8.847656 5.808594 9.269531 5.808594 9.53125 6.070312 L 11.492188 8.039062 C 11.753906 8.304688 11.753906 8.726562 11.492188 8.980469 C 11.355469 9.109375 11.1875 9.175781 11.011719 9.175781 Z M 11.011719 9.175781 " fill-opacity="1" fill-rule="nonzero"/><path fill="#4c241d" d="M 21.890625 3.230469 C 21.890625 3.847656 21.390625 4.347656 20.777344 4.347656 C 20.164062 4.347656 19.667969 3.847656 19.667969 3.230469 C 19.667969 2.613281 20.164062 2.117188 20.777344 2.117188 C 21.390625 2.125 21.890625 2.625 21.890625 3.230469 Z M 21.890625 3.230469 " fill-opacity="1" fill-rule="nonzero"/><g clip-path="url(#66f650f292)"><path fill="#4c241d" d="M 40.511719 17.265625 C 40.511719 17.882812 40.015625 18.382812 39.402344 18.382812 C 38.789062 18.382812 38.292969 17.882812 38.292969 17.265625 C 38.292969 16.648438 38.789062 16.148438 39.402344 16.148438 C 40.015625 16.148438 40.511719 16.65625 40.511719 17.265625 Z M 40.511719 17.265625 " fill-opacity="1" fill-rule="nonzero"/></g></svg>