<svg xmlns="http://www.w3.org/2000/svg" xmlns:xlink="http://www.w3.org/1999/xlink" width="40" zoomAndPan="magnify" viewBox="0 0 30 30.000001" height="40" preserveAspectRatio="xMidYMid meet" version="1.0"><defs><clipPath id="3f335ad546"><path d="M 0.484375 11 L 29.515625 11 L 29.515625 21.773438 L 0.484375 21.773438 Z M 0.484375 11 " clip-rule="nonzero"/></clipPath><clipPath id="a5bdc18545"><path d="M 5 18 L 11 18 L 11 21.773438 L 5 21.773438 Z M 5 18 " clip-rule="nonzero"/></clipPath><clipPath id="db42c30c33"><path d="M 7 5.082031 L 20 5.082031 L 20 18 L 7 18 Z M 7 5.082031 " clip-rule="nonzero"/></clipPath><clipPath id="9657ecf343"><path d="M 18 16 L 25 16 L 25 21.773438 L 18 21.773438 Z M 18 16 " clip-rule="nonzero"/></clipPath></defs><g clip-path="url(#3f335ad546)"><path fill="#233dff" d="M 19.480469 11.707031 L 21.175781 14.054688 C 9.324219 15.273438 0.496094 21.773438 0.496094 21.773438 C 2.15625 20.882812 4.953125 19.535156 8.625 18.34375 C 10.832031 17.628906 13.53125 16.921875 16.59375 16.449219 C 20.414062 15.859375 24.800781 15.632812 29.503906 16.207031 L 19.480469 11.707031 " fill-opacity="1" fill-rule="nonzero"/></g><g clip-path="url(#a5bdc18545)"><path fill="#000000" d="M 6.265625 19.722656 L 5.226562 21.535156 L 8.464844 21.535156 L 10.273438 18.375 C 9.773438 18.519531 9.277344 18.671875 8.78125 18.832031 C 7.890625 19.125 7.050781 19.421875 6.265625 19.722656 " fill-opacity="1" fill-rule="nonzero"/></g><g clip-path="url(#db42c30c33)"><path fill="#000000" d="M 14.660156 5.082031 L 7.710938 17.199219 C 8.933594 16.660156 10.332031 16.105469 11.871094 15.585938 L 14.660156 10.726562 L 16.683594 14.257812 C 17.632812 14.050781 18.613281 13.871094 19.617188 13.730469 L 14.660156 5.082031 " fill-opacity="1" fill-rule="nonzero"/></g><g clip-path="url(#9657ecf343)"><path fill="#000000" d="M 21.191406 16.472656 C 20.171875 16.535156 19.144531 16.628906 18.117188 16.757812 L 20.855469 21.535156 L 24.09375 21.535156 L 21.191406 16.472656 " fill-opacity="1" fill-rule="nonzero"/></g></svg>