<svg xmlns="http://www.w3.org/2000/svg" xmlns:xlink="http://www.w3.org/1999/xlink" width="500" zoomAndPan="magnify" viewBox="0 0 375 74.999997" height="100" preserveAspectRatio="xMidYMid meet" version="1.0"><defs><g/><clipPath id="e9c5757ead"><path d="M 35.589844 29 L 166.839844 29 L 166.839844 75 L 35.589844 75 Z M 35.589844 29 " clip-rule="nonzero"/></clipPath></defs><g clip-path="url(#e9c5757ead)"><path fill="#233dff" d="M 121.46875 29.769531 L 129.148438 40.320312 C 75.542969 45.789062 35.625 75 35.625 75 C 43.128906 70.992188 55.785156 64.941406 72.390625 59.589844 C 82.371094 56.375 94.570312 53.199219 108.414062 51.074219 C 125.695312 48.421875 145.535156 47.40625 166.804688 49.996094 L 121.46875 29.769531 " fill-opacity="1" fill-rule="nonzero"/></g><path fill="#000000" d="M 61.707031 65.777344 L 57.011719 73.917969 L 71.652344 73.917969 L 79.84375 59.730469 C 77.582031 60.382812 75.335938 61.070312 73.097656 61.789062 C 69.0625 63.089844 65.261719 64.433594 61.707031 65.777344 " fill-opacity="1" fill-rule="nonzero"/><path fill="#000000" d="M 99.675781 0 L 68.25 54.441406 C 73.785156 52.023438 80.109375 49.523438 87.074219 47.203125 L 99.675781 25.371094 L 108.828125 41.230469 C 113.121094 40.304688 117.554688 39.5 122.101562 38.855469 L 99.675781 0 " fill-opacity="1" fill-rule="nonzero"/><path fill="#000000" d="M 129.21875 51.183594 C 124.59375 51.457031 119.953125 51.890625 115.3125 52.460938 L 127.695312 73.917969 L 142.339844 73.917969 L 129.21875 51.183594 " fill-opacity="1" fill-rule="nonzero"/><g fill="#000000" fill-opacity="1"><g transform="translate(130.873927, 53.657814)"><g><path d="M 2.65625 -22.34375 L 12.796875 -22.34375 C 15.222656 -22.34375 17.367188 -21.878906 19.234375 -20.953125 C 21.097656 -20.023438 22.546875 -18.722656 23.578125 -17.046875 C 24.609375 -15.367188 25.125 -13.410156 25.125 -11.171875 C 25.125 -8.941406 24.609375 -6.984375 23.578125 -5.296875 C 22.546875 -3.617188 21.097656 -2.316406 19.234375 -1.390625 C 17.367188 -0.460938 15.222656 0 12.796875 0 L 2.65625 0 Z M 12.546875 -4.25 C 14.773438 -4.25 16.554688 -4.867188 17.890625 -6.109375 C 19.222656 -7.359375 19.890625 -9.046875 19.890625 -11.171875 C 19.890625 -13.296875 19.222656 -14.976562 17.890625 -16.21875 C 16.554688 -17.46875 14.773438 -18.09375 12.546875 -18.09375 L 7.828125 -18.09375 L 7.828125 -4.25 Z M 12.546875 -4.25 "/></g></g></g><g fill="#000000" fill-opacity="1"><g transform="translate(165.064525, 53.657814)"><g><path d="M 16.890625 0 L 12.578125 -6.21875 L 7.828125 -6.21875 L 7.828125 0 L 2.65625 0 L 2.65625 -22.34375 L 12.328125 -22.34375 C 14.304688 -22.34375 16.019531 -22.007812 17.46875 -21.34375 C 18.925781 -20.6875 20.050781 -19.753906 20.84375 -18.546875 C 21.632812 -17.335938 22.03125 -15.898438 22.03125 -14.234375 C 22.03125 -12.578125 21.628906 -11.144531 20.828125 -9.9375 C 20.023438 -8.738281 18.890625 -7.820312 17.421875 -7.1875 L 22.4375 0 Z M 16.796875 -14.234375 C 16.796875 -15.492188 16.390625 -16.457031 15.578125 -17.125 C 14.765625 -17.789062 13.582031 -18.125 12.03125 -18.125 L 7.828125 -18.125 L 7.828125 -10.34375 L 12.03125 -10.34375 C 13.582031 -10.34375 14.765625 -10.679688 15.578125 -11.359375 C 16.390625 -12.046875 16.796875 -13.003906 16.796875 -14.234375 Z M 16.796875 -14.234375 "/></g></g></g><g fill="#000000" fill-opacity="1"><g transform="translate(196.350234, 53.657814)"><g><path d="M 2.65625 -22.34375 L 7.828125 -22.34375 L 7.828125 0 L 2.65625 0 Z M 2.65625 -22.34375 "/></g></g></g><g fill="#000000" fill-opacity="1"><g transform="translate(214.643745, 53.657814)"><g><path d="M 17.359375 -4.78125 L 6.984375 -4.78125 L 5.015625 0 L -0.28125 0 L 9.671875 -22.34375 L 14.78125 -22.34375 L 24.765625 0 L 19.34375 0 Z M 15.734375 -8.71875 L 12.1875 -17.265625 L 8.65625 -8.71875 Z M 15.734375 -8.71875 "/></g></g></g><g fill="#000000" fill-opacity="1"><g transform="translate(246.919023, 53.657814)"><g><path d="M 23.140625 -22.34375 L 23.140625 0 L 18.890625 0 L 7.75 -13.5625 L 7.75 0 L 2.65625 0 L 2.65625 -22.34375 L 6.921875 -22.34375 L 18.03125 -8.78125 L 18.03125 -22.34375 Z M 23.140625 -22.34375 "/></g></g></g><g fill="#000000" fill-opacity="1"><g transform="translate(280.535021, 53.657814)"><g><path d="M 6.765625 0.390625 C 5.253906 0.390625 3.863281 0.109375 2.59375 -0.453125 C 1.332031 -1.023438 0.296875 -1.832031 -0.515625 -2.875 L 2.359375 -6.328125 C 3.578125 -4.679688 4.960938 -3.859375 6.515625 -3.859375 C 8.617188 -3.859375 9.671875 -5.09375 9.671875 -7.5625 L 9.671875 -18.203125 L 1.8125 -18.203125 L 1.8125 -22.34375 L 14.8125 -22.34375 L 14.8125 -7.859375 C 14.8125 -5.109375 14.128906 -3.046875 12.765625 -1.671875 C 11.398438 -0.296875 9.398438 0.390625 6.765625 0.390625 Z M 6.765625 0.390625 "/></g></g></g><g fill="#000000" fill-opacity="1"><g transform="translate(305.627884, 53.657814)"><g><path d="M 16.890625 0 L 12.578125 -6.21875 L 7.828125 -6.21875 L 7.828125 0 L 2.65625 0 L 2.65625 -22.34375 L 12.328125 -22.34375 C 14.304688 -22.34375 16.019531 -22.007812 17.46875 -21.34375 C 18.925781 -20.6875 20.050781 -19.753906 20.84375 -18.546875 C 21.632812 -17.335938 22.03125 -15.898438 22.03125 -14.234375 C 22.03125 -12.578125 21.628906 -11.144531 20.828125 -9.9375 C 20.023438 -8.738281 18.890625 -7.820312 17.421875 -7.1875 L 22.4375 0 Z M 16.796875 -14.234375 C 16.796875 -15.492188 16.390625 -16.457031 15.578125 -17.125 C 14.765625 -17.789062 13.582031 -18.125 12.03125 -18.125 L 7.828125 -18.125 L 7.828125 -10.34375 L 12.03125 -10.34375 C 13.582031 -10.34375 14.765625 -10.679688 15.578125 -11.359375 C 16.390625 -12.046875 16.796875 -13.003906 16.796875 -14.234375 Z M 16.796875 -14.234375 "/></g></g></g><g fill="#000000" fill-opacity="1"><g transform="translate(157.739013, 65.275719)"><g><path d="M 2.4375 -5.6875 L 2.4375 -3.84375 L 5.671875 -3.84375 L 5.671875 -2.546875 L 2.4375 -2.546875 L 2.4375 0 L 0.828125 0 L 0.828125 -6.984375 L 6.09375 -6.984375 L 6.09375 -5.6875 Z M 2.4375 -5.6875 "/></g></g></g><g fill="#000000" fill-opacity="1"><g transform="translate(166.546654, 65.275719)"><g><path d="M 2.203125 -4.65625 C 2.390625 -4.914062 2.640625 -5.109375 2.953125 -5.234375 C 3.265625 -5.367188 3.628906 -5.4375 4.046875 -5.4375 L 4.046875 -4 C 3.867188 -4.019531 3.753906 -4.03125 3.703125 -4.03125 C 3.253906 -4.03125 2.898438 -3.90625 2.640625 -3.65625 C 2.390625 -3.40625 2.265625 -3.03125 2.265625 -2.53125 L 2.265625 0 L 0.71875 0 L 0.71875 -5.359375 L 2.203125 -5.359375 Z M 2.203125 -4.65625 "/></g></g></g><g fill="#000000" fill-opacity="1"><g transform="translate(173.282399, 65.275719)"><g><path d="M 3.265625 0.078125 C 2.703125 0.078125 2.195312 -0.0351562 1.75 -0.265625 C 1.300781 -0.503906 0.945312 -0.832031 0.6875 -1.25 C 0.4375 -1.675781 0.3125 -2.15625 0.3125 -2.6875 C 0.3125 -3.21875 0.4375 -3.691406 0.6875 -4.109375 C 0.945312 -4.523438 1.300781 -4.847656 1.75 -5.078125 C 2.195312 -5.316406 2.703125 -5.4375 3.265625 -5.4375 C 3.828125 -5.4375 4.332031 -5.316406 4.78125 -5.078125 C 5.226562 -4.847656 5.578125 -4.523438 5.828125 -4.109375 C 6.078125 -3.691406 6.203125 -3.21875 6.203125 -2.6875 C 6.203125 -2.15625 6.078125 -1.675781 5.828125 -1.25 C 5.578125 -0.832031 5.226562 -0.503906 4.78125 -0.265625 C 4.332031 -0.0351562 3.828125 0.078125 3.265625 0.078125 Z M 3.265625 -1.203125 C 3.671875 -1.203125 4 -1.332031 4.25 -1.59375 C 4.507812 -1.863281 4.640625 -2.226562 4.640625 -2.6875 C 4.640625 -3.132812 4.507812 -3.492188 4.25 -3.765625 C 4 -4.035156 3.671875 -4.171875 3.265625 -4.171875 C 2.867188 -4.171875 2.539062 -4.035156 2.28125 -3.765625 C 2.019531 -3.492188 1.890625 -3.132812 1.890625 -2.6875 C 1.890625 -2.226562 2.019531 -1.863281 2.28125 -1.59375 C 2.539062 -1.332031 2.867188 -1.203125 3.265625 -1.203125 Z M 3.265625 -1.203125 "/></g></g></g><g fill="#000000" fill-opacity="1"><g transform="translate(182.249409, 65.275719)"><g><path d="M 3.984375 -5.4375 C 4.640625 -5.4375 5.171875 -5.238281 5.578125 -4.84375 C 5.992188 -4.445312 6.203125 -3.859375 6.203125 -3.078125 L 6.203125 0 L 4.640625 0 L 4.640625 -2.828125 C 4.640625 -3.253906 4.546875 -3.570312 4.359375 -3.78125 C 4.179688 -3.988281 3.914062 -4.09375 3.5625 -4.09375 C 3.164062 -4.09375 2.847656 -3.972656 2.609375 -3.734375 C 2.378906 -3.492188 2.265625 -3.132812 2.265625 -2.65625 L 2.265625 0 L 0.71875 0 L 0.71875 -5.359375 L 2.203125 -5.359375 L 2.203125 -4.734375 C 2.410156 -4.960938 2.664062 -5.132812 2.96875 -5.25 C 3.269531 -5.375 3.609375 -5.4375 3.984375 -5.4375 Z M 3.984375 -5.4375 "/></g></g></g><g fill="#000000" fill-opacity="1"><g transform="translate(191.575021, 65.275719)"><g><path d="M 4.171875 -0.265625 C 4.023438 -0.148438 3.835938 -0.0625 3.609375 0 C 3.390625 0.0507812 3.15625 0.078125 2.90625 0.078125 C 2.269531 0.078125 1.773438 -0.0820312 1.421875 -0.40625 C 1.078125 -0.726562 0.90625 -1.207031 0.90625 -1.84375 L 0.90625 -4.046875 L 0.078125 -4.046875 L 0.078125 -5.25 L 0.90625 -5.25 L 0.90625 -6.546875 L 2.46875 -6.546875 L 2.46875 -5.25 L 3.796875 -5.25 L 3.796875 -4.046875 L 2.46875 -4.046875 L 2.46875 -1.859375 C 2.46875 -1.640625 2.523438 -1.46875 2.640625 -1.34375 C 2.753906 -1.21875 2.914062 -1.15625 3.125 -1.15625 C 3.375 -1.15625 3.585938 -1.222656 3.765625 -1.359375 Z M 4.171875 -0.265625 "/></g></g></g><g fill="#000000" fill-opacity="1"><g transform="translate(198.350616, 65.275719)"><g/></g></g><g fill="#000000" fill-opacity="1"><g transform="translate(203.612134, 65.275719)"><g><path d="M 6.234375 -1.296875 L 6.234375 0 L 0.828125 0 L 0.828125 -6.984375 L 6.09375 -6.984375 L 6.09375 -5.6875 L 2.4375 -5.6875 L 2.4375 -4.171875 L 5.671875 -4.171875 L 5.671875 -2.90625 L 2.4375 -2.90625 L 2.4375 -1.296875 Z M 6.234375 -1.296875 "/></g></g></g><g fill="#000000" fill-opacity="1"><g transform="translate(212.738524, 65.275719)"><g><path d="M 3.984375 -5.4375 C 4.640625 -5.4375 5.171875 -5.238281 5.578125 -4.84375 C 5.992188 -4.445312 6.203125 -3.859375 6.203125 -3.078125 L 6.203125 0 L 4.640625 0 L 4.640625 -2.828125 C 4.640625 -3.253906 4.546875 -3.570312 4.359375 -3.78125 C 4.179688 -3.988281 3.914062 -4.09375 3.5625 -4.09375 C 3.164062 -4.09375 2.847656 -3.972656 2.609375 -3.734375 C 2.378906 -3.492188 2.265625 -3.132812 2.265625 -2.65625 L 2.265625 0 L 0.71875 0 L 0.71875 -5.359375 L 2.203125 -5.359375 L 2.203125 -4.734375 C 2.410156 -4.960938 2.664062 -5.132812 2.96875 -5.25 C 3.269531 -5.375 3.609375 -5.4375 3.984375 -5.4375 Z M 3.984375 -5.4375 "/></g></g></g><g fill="#000000" fill-opacity="1"><g transform="translate(222.064137, 65.275719)"><g><path d="M 6.1875 -7.390625 L 6.1875 0 L 4.6875 0 L 4.6875 -0.625 C 4.300781 -0.15625 3.742188 0.078125 3.015625 0.078125 C 2.515625 0.078125 2.054688 -0.03125 1.640625 -0.25 C 1.234375 -0.476562 0.914062 -0.800781 0.6875 -1.21875 C 0.457031 -1.644531 0.34375 -2.132812 0.34375 -2.6875 C 0.34375 -3.238281 0.457031 -3.722656 0.6875 -4.140625 C 0.914062 -4.554688 1.234375 -4.875 1.640625 -5.09375 C 2.054688 -5.320312 2.515625 -5.4375 3.015625 -5.4375 C 3.703125 -5.4375 4.238281 -5.222656 4.625 -4.796875 L 4.625 -7.390625 Z M 3.296875 -1.203125 C 3.679688 -1.203125 4.003906 -1.332031 4.265625 -1.59375 C 4.523438 -1.863281 4.65625 -2.226562 4.65625 -2.6875 C 4.65625 -3.132812 4.523438 -3.492188 4.265625 -3.765625 C 4.003906 -4.035156 3.679688 -4.171875 3.296875 -4.171875 C 2.890625 -4.171875 2.554688 -4.035156 2.296875 -3.765625 C 2.035156 -3.492188 1.90625 -3.132812 1.90625 -2.6875 C 1.90625 -2.226562 2.035156 -1.863281 2.296875 -1.59375 C 2.554688 -1.332031 2.890625 -1.203125 3.296875 -1.203125 Z M 3.296875 -1.203125 "/></g></g></g><g fill="#000000" fill-opacity="1"><g transform="translate(231.399705, 65.275719)"><g/></g></g><g fill="#000000" fill-opacity="1"><g transform="translate(236.661223, 65.275719)"><g><path d="M 0.828125 -6.984375 L 4 -6.984375 C 4.757812 -6.984375 5.425781 -6.835938 6 -6.546875 C 6.582031 -6.253906 7.035156 -5.84375 7.359375 -5.3125 C 7.679688 -4.789062 7.84375 -4.179688 7.84375 -3.484375 C 7.84375 -2.785156 7.679688 -2.175781 7.359375 -1.65625 C 7.035156 -1.132812 6.582031 -0.726562 6 -0.4375 C 5.425781 -0.144531 4.757812 0 4 0 L 0.828125 0 Z M 3.921875 -1.328125 C 4.617188 -1.328125 5.171875 -1.519531 5.578125 -1.90625 C 5.992188 -2.300781 6.203125 -2.828125 6.203125 -3.484375 C 6.203125 -4.148438 5.992188 -4.675781 5.578125 -5.0625 C 5.171875 -5.457031 4.617188 -5.65625 3.921875 -5.65625 L 2.4375 -5.65625 L 2.4375 -1.328125 Z M 3.921875 -1.328125 "/></g></g></g><g fill="#000000" fill-opacity="1"><g transform="translate(247.331573, 65.275719)"><g><path d="M 5.96875 -2.65625 C 5.96875 -2.632812 5.957031 -2.5 5.9375 -2.25 L 1.890625 -2.25 C 1.960938 -1.914062 2.132812 -1.648438 2.40625 -1.453125 C 2.675781 -1.265625 3.015625 -1.171875 3.421875 -1.171875 C 3.703125 -1.171875 3.945312 -1.210938 4.15625 -1.296875 C 4.375 -1.378906 4.578125 -1.507812 4.765625 -1.6875 L 5.59375 -0.78125 C 5.082031 -0.207031 4.34375 0.078125 3.375 0.078125 C 2.769531 0.078125 2.234375 -0.0351562 1.765625 -0.265625 C 1.304688 -0.503906 0.945312 -0.832031 0.6875 -1.25 C 0.4375 -1.675781 0.3125 -2.15625 0.3125 -2.6875 C 0.3125 -3.207031 0.4375 -3.675781 0.6875 -4.09375 C 0.9375 -4.519531 1.28125 -4.847656 1.71875 -5.078125 C 2.15625 -5.316406 2.644531 -5.4375 3.1875 -5.4375 C 3.707031 -5.4375 4.179688 -5.320312 4.609375 -5.09375 C 5.035156 -4.875 5.367188 -4.550781 5.609375 -4.125 C 5.847656 -3.707031 5.96875 -3.21875 5.96875 -2.65625 Z M 3.1875 -4.265625 C 2.832031 -4.265625 2.535156 -4.164062 2.296875 -3.96875 C 2.054688 -3.769531 1.910156 -3.5 1.859375 -3.15625 L 4.5 -3.15625 C 4.445312 -3.488281 4.300781 -3.753906 4.0625 -3.953125 C 3.820312 -4.160156 3.53125 -4.265625 3.1875 -4.265625 Z M 3.1875 -4.265625 "/></g></g></g><g fill="#000000" fill-opacity="1"><g transform="translate(256.059512, 65.275719)"><g><path d="M 6.046875 -5.359375 L 3.78125 0 L 2.171875 0 L -0.078125 -5.359375 L 1.53125 -5.359375 L 3.015625 -1.71875 L 4.546875 -5.359375 Z M 6.046875 -5.359375 "/></g></g></g><g fill="#000000" fill-opacity="1"><g transform="translate(264.458743, 65.275719)"><g><path d="M 5.96875 -2.65625 C 5.96875 -2.632812 5.957031 -2.5 5.9375 -2.25 L 1.890625 -2.25 C 1.960938 -1.914062 2.132812 -1.648438 2.40625 -1.453125 C 2.675781 -1.265625 3.015625 -1.171875 3.421875 -1.171875 C 3.703125 -1.171875 3.945312 -1.210938 4.15625 -1.296875 C 4.375 -1.378906 4.578125 -1.507812 4.765625 -1.6875 L 5.59375 -0.78125 C 5.082031 -0.207031 4.34375 0.078125 3.375 0.078125 C 2.769531 0.078125 2.234375 -0.0351562 1.765625 -0.265625 C 1.304688 -0.503906 0.945312 -0.832031 0.6875 -1.25 C 0.4375 -1.675781 0.3125 -2.15625 0.3125 -2.6875 C 0.3125 -3.207031 0.4375 -3.675781 0.6875 -4.09375 C 0.9375 -4.519531 1.28125 -4.847656 1.71875 -5.078125 C 2.15625 -5.316406 2.644531 -5.4375 3.1875 -5.4375 C 3.707031 -5.4375 4.179688 -5.320312 4.609375 -5.09375 C 5.035156 -4.875 5.367188 -4.550781 5.609375 -4.125 C 5.847656 -3.707031 5.96875 -3.21875 5.96875 -2.65625 Z M 3.1875 -4.265625 C 2.832031 -4.265625 2.535156 -4.164062 2.296875 -3.96875 C 2.054688 -3.769531 1.910156 -3.5 1.859375 -3.15625 L 4.5 -3.15625 C 4.445312 -3.488281 4.300781 -3.753906 4.0625 -3.953125 C 3.820312 -4.160156 3.53125 -4.265625 3.1875 -4.265625 Z M 3.1875 -4.265625 "/></g></g></g><g fill="#000000" fill-opacity="1"><g transform="translate(273.186681, 65.275719)"><g><path d="M 0.71875 -7.390625 L 2.265625 -7.390625 L 2.265625 0 L 0.71875 0 Z M 0.71875 -7.390625 "/></g></g></g><g fill="#000000" fill-opacity="1"><g transform="translate(278.627488, 65.275719)"><g><path d="M 3.265625 0.078125 C 2.703125 0.078125 2.195312 -0.0351562 1.75 -0.265625 C 1.300781 -0.503906 0.945312 -0.832031 0.6875 -1.25 C 0.4375 -1.675781 0.3125 -2.15625 0.3125 -2.6875 C 0.3125 -3.21875 0.4375 -3.691406 0.6875 -4.109375 C 0.945312 -4.523438 1.300781 -4.847656 1.75 -5.078125 C 2.195312 -5.316406 2.703125 -5.4375 3.265625 -5.4375 C 3.828125 -5.4375 4.332031 -5.316406 4.78125 -5.078125 C 5.226562 -4.847656 5.578125 -4.523438 5.828125 -4.109375 C 6.078125 -3.691406 6.203125 -3.21875 6.203125 -2.6875 C 6.203125 -2.15625 6.078125 -1.675781 5.828125 -1.25 C 5.578125 -0.832031 5.226562 -0.503906 4.78125 -0.265625 C 4.332031 -0.0351562 3.828125 0.078125 3.265625 0.078125 Z M 3.265625 -1.203125 C 3.671875 -1.203125 4 -1.332031 4.25 -1.59375 C 4.507812 -1.863281 4.640625 -2.226562 4.640625 -2.6875 C 4.640625 -3.132812 4.507812 -3.492188 4.25 -3.765625 C 4 -4.035156 3.671875 -4.171875 3.265625 -4.171875 C 2.867188 -4.171875 2.539062 -4.035156 2.28125 -3.765625 C 2.019531 -3.492188 1.890625 -3.132812 1.890625 -2.6875 C 1.890625 -2.226562 2.019531 -1.863281 2.28125 -1.59375 C 2.539062 -1.332031 2.867188 -1.203125 3.265625 -1.203125 Z M 3.265625 -1.203125 "/></g></g></g><g fill="#000000" fill-opacity="1"><g transform="translate(287.594494, 65.275719)"><g><path d="M 3.890625 -5.4375 C 4.390625 -5.4375 4.84375 -5.320312 5.25 -5.09375 C 5.65625 -4.863281 5.972656 -4.539062 6.203125 -4.125 C 6.441406 -3.71875 6.5625 -3.238281 6.5625 -2.6875 C 6.5625 -2.132812 6.441406 -1.648438 6.203125 -1.234375 C 5.972656 -0.816406 5.65625 -0.492188 5.25 -0.265625 C 4.84375 -0.0351562 4.390625 0.078125 3.890625 0.078125 C 3.203125 0.078125 2.660156 -0.132812 2.265625 -0.5625 L 2.265625 1.9375 L 0.71875 1.9375 L 0.71875 -5.359375 L 2.203125 -5.359375 L 2.203125 -4.75 C 2.585938 -5.207031 3.148438 -5.4375 3.890625 -5.4375 Z M 3.625 -1.203125 C 4.019531 -1.203125 4.34375 -1.332031 4.59375 -1.59375 C 4.851562 -1.863281 4.984375 -2.226562 4.984375 -2.6875 C 4.984375 -3.132812 4.851562 -3.492188 4.59375 -3.765625 C 4.34375 -4.035156 4.019531 -4.171875 3.625 -4.171875 C 3.21875 -4.171875 2.882812 -4.035156 2.625 -3.765625 C 2.375 -3.492188 2.25 -3.132812 2.25 -2.6875 C 2.25 -2.226562 2.375 -1.863281 2.625 -1.59375 C 2.882812 -1.332031 3.21875 -1.203125 3.625 -1.203125 Z M 3.625 -1.203125 "/></g></g></g><g fill="#000000" fill-opacity="1"><g transform="translate(296.910133, 65.275719)"><g><path d="M 5.96875 -2.65625 C 5.96875 -2.632812 5.957031 -2.5 5.9375 -2.25 L 1.890625 -2.25 C 1.960938 -1.914062 2.132812 -1.648438 2.40625 -1.453125 C 2.675781 -1.265625 3.015625 -1.171875 3.421875 -1.171875 C 3.703125 -1.171875 3.945312 -1.210938 4.15625 -1.296875 C 4.375 -1.378906 4.578125 -1.507812 4.765625 -1.6875 L 5.59375 -0.78125 C 5.082031 -0.207031 4.34375 0.078125 3.375 0.078125 C 2.769531 0.078125 2.234375 -0.0351562 1.765625 -0.265625 C 1.304688 -0.503906 0.945312 -0.832031 0.6875 -1.25 C 0.4375 -1.675781 0.3125 -2.15625 0.3125 -2.6875 C 0.3125 -3.207031 0.4375 -3.675781 0.6875 -4.09375 C 0.9375 -4.519531 1.28125 -4.847656 1.71875 -5.078125 C 2.15625 -5.316406 2.644531 -5.4375 3.1875 -5.4375 C 3.707031 -5.4375 4.179688 -5.320312 4.609375 -5.09375 C 5.035156 -4.875 5.367188 -4.550781 5.609375 -4.125 C 5.847656 -3.707031 5.96875 -3.21875 5.96875 -2.65625 Z M 3.1875 -4.265625 C 2.832031 -4.265625 2.535156 -4.164062 2.296875 -3.96875 C 2.054688 -3.769531 1.910156 -3.5 1.859375 -3.15625 L 4.5 -3.15625 C 4.445312 -3.488281 4.300781 -3.753906 4.0625 -3.953125 C 3.820312 -4.160156 3.53125 -4.265625 3.1875 -4.265625 Z M 3.1875 -4.265625 "/></g></g></g><g fill="#000000" fill-opacity="1"><g transform="translate(305.638072, 65.275719)"><g><path d="M 2.203125 -4.65625 C 2.390625 -4.914062 2.640625 -5.109375 2.953125 -5.234375 C 3.265625 -5.367188 3.628906 -5.4375 4.046875 -5.4375 L 4.046875 -4 C 3.867188 -4.019531 3.753906 -4.03125 3.703125 -4.03125 C 3.253906 -4.03125 2.898438 -3.90625 2.640625 -3.65625 C 2.390625 -3.40625 2.265625 -3.03125 2.265625 -2.53125 L 2.265625 0 L 0.71875 0 L 0.71875 -5.359375 L 2.203125 -5.359375 Z M 2.203125 -4.65625 "/></g></g></g></svg>